<?xml version="1.0" encoding="UTF-8" standalone="no"?>
<svg width="20" height="20" viewBox="0 0 20 20" fill="none" xmlns="http://www.w3.org/2000/svg">
  <!-- Grid pattern -->
  <path d="M1 0V20M5 0V20M9 0V20M13 0V20M17 0V20M0 1H20M0 5H20M0 9H20M0 13H20M0 17H20" stroke="#EEEEEE" stroke-width="0.5"/>
  
  <!-- Subtle dots at intersections -->
  <circle cx="1" cy="1" r="0.5" fill="#E0E0E0"/>
  <circle cx="5" cy="1" r="0.5" fill="#E0E0E0"/>
  <circle cx="9" cy="1" r="0.5" fill="#E0E0E0"/>
  <circle cx="13" cy="1" r="0.5" fill="#E0E0E0"/>
  <circle cx="17" cy="1" r="0.5" fill="#E0E0E0"/>
  
  <circle cx="1" cy="5" r="0.5" fill="#E0E0E0"/>
  <circle cx="5" cy="5" r="0.5" fill="#E0E0E0"/>
  <circle cx="9" cy="5" r="0.5" fill="#E0E0E0"/>
  <circle cx="13" cy="5" r="0.5" fill="#E0E0E0"/>
  <circle cx="17" cy="5" r="0.5" fill="#E0E0E0"/>
  
  <circle cx="1" cy="9" r="0.5" fill="#E0E0E0"/>
  <circle cx="5" cy="9" r="0.5" fill="#E0E0E0"/>
  <circle cx="9" cy="9" r="0.5" fill="#E0E0E0"/>
  <circle cx="13" cy="9" r="0.5" fill="#E0E0E0"/>
  <circle cx="17" cy="9" r="0.5" fill="#E0E0E0"/>
  
  <circle cx="1" cy="13" r="0.5" fill="#E0E0E0"/>
  <circle cx="5" cy="13" r="0.5" fill="#E0E0E0"/>
  <circle cx="9" cy="13" r="0.5" fill="#E0E0E0"/>
  <circle cx="13" cy="13" r="0.5" fill="#E0E0E0"/>
  <circle cx="17" cy="13" r="0.5" fill="#E0E0E0"/>
  
  <circle cx="1" cy="17" r="0.5" fill="#E0E0E0"/>
  <circle cx="5" cy="17" r="0.5" fill="#E0E0E0"/>
  <circle cx="9" cy="17" r="0.5" fill="#E0E0E0"/>
  <circle cx="13" cy="17" r="0.5" fill="#E0E0E0"/>
  <circle cx="17" cy="17" r="0.5" fill="#E0E0E0"/>
</svg>
